<?xml version="1.0" encoding="UTF-8" standalone="no"?>
<!-- Created with Inkscape (http://www.inkscape.org/) -->

<svg
   width="16.933332mm"
   height="16.933336mm"
   viewBox="0 0 16.933332 16.933336"
   version="1.1"
   id="svg1"
   xmlns="http://www.w3.org/2000/svg"
   xmlns:svg="http://www.w3.org/2000/svg">
  <defs
     id="defs1" />
  <g
     id="layer5"
     transform="translate(-119.73218,-171.54059)">
    <rect
       style="fill:#2c3639;fill-opacity:1;stroke:#222a2b;stroke-width:1.80378;stroke-linecap:round;stroke-linejoin:round;stroke-dasharray:none;stroke-opacity:1;paint-order:stroke markers fill"
       id="rect3-9"
       width="15.129553"
       height="15.129551"
       x="120.63407"
       y="172.44246"
       ry="1.186323" />
    <rect
       style="fill:#222a2b;fill-opacity:1;stroke:none;stroke-width:1.6093;stroke-linecap:round;stroke-linejoin:round;stroke-dasharray:none;stroke-opacity:1;paint-order:stroke markers fill"
       id="rect3-9-9"
       width="6.9924121"
       height="4.0096583"
       x="129.24382"
       y="184.18513"
       ry="1.149557" />
    <circle
       style="fill:#00b4d8;fill-opacity:1;stroke:none;stroke-width:1.96916;stroke-linecap:round;stroke-linejoin:round;stroke-dasharray:none;stroke-opacity:1;paint-order:stroke markers fill"
       id="path8-4"
       cx="125.00571"
       cy="174.49785"
       r="1.3526937" />
    <path
       style="fill:none;fill-opacity:1;stroke:#b76e79;stroke-width:1.32292;stroke-linecap:round;stroke-linejoin:miter;stroke-dasharray:none;stroke-opacity:1;paint-order:stroke markers fill"
       d="m 143.20628,150.71742 h -4.32056 a 4.8342097,4.8342097 135 0 0 -4.83421,4.83421 v 0"
       id="path21-3"
       transform="matrix(0.85209051,0,0,0.85209051,10.781688,51.582348)" />
    <path
       style="fill:none;fill-opacity:1;stroke:#70c36f;stroke-width:1.32292;stroke-linecap:round;stroke-linejoin:miter;stroke-dasharray:none;stroke-opacity:1;paint-order:stroke markers fill"
       d="m 143.20628,145.83919 h -4.27654 a 4.87823,4.87823 135 0 0 -4.87823,4.87823 v 0"
       id="path20-1"
       transform="matrix(0.85209051,0,0,0.85209051,10.781688,51.582348)" />
    <path
       style="fill:#00b4d8;fill-opacity:1;stroke:#00b4d8;stroke-width:1.12725;stroke-linecap:round;stroke-linejoin:miter;stroke-dasharray:none;stroke-opacity:1;paint-order:stroke markers fill"
       d="m 125.0057,174.53535 v 10.94376"
       id="path19-4" />
    <circle
       style="fill:#00b4d8;fill-opacity:1;stroke:none;stroke-width:1.96916;stroke-linecap:round;stroke-linejoin:round;stroke-dasharray:none;stroke-opacity:1;paint-order:stroke markers fill"
       id="path8-0-9"
       cx="125.00571"
       cy="185.47911"
       r="1.3526937" />
    <path
       d="m 131.10011,186.71474 q -0.0282,0.0952 -0.0776,0.16933 -0.0494,0.0706 -0.11642,0.11995 -0.067,0.0459 -0.15522,0.0705 -0.0847,0.0247 -0.18344,0.0247 -0.21167,0 -0.34572,-0.0882 -0.13406,-0.0917 -0.21167,-0.23283 -0.0741,-0.14111 -0.10583,-0.31397 -0.0282,-0.17639 -0.0282,-0.33867 0,-0.16933 0.0282,-0.34572 0.0317,-0.17639 0.11288,-0.32103 0.0847,-0.14464 0.22578,-0.23636 0.14464,-0.0917 0.37395,-0.0917 0.18344,0 0.30339,0.0988 0.11994,0.0953 0.16933,0.26459 v -0.15875 q 0,-0.10584 0.0459,-0.15522 0.0494,-0.0494 0.1517,-0.0494 0.1023,0 0.14816,0.0494 0.0494,0.0494 0.0494,0.15522 v 1.77094 q 0,0.22578 -0.0564,0.39159 -0.0529,0.16933 -0.15875,0.27869 -0.10231,0.11289 -0.25753,0.16581 -0.15522,0.0564 -0.35278,0.0564 -0.11642,0 -0.21519,-0.0212 -0.0988,-0.0212 -0.18345,-0.0635 -0.0847,-0.0388 -0.15522,-0.0952 -0.0706,-0.0564 -0.127,-0.12347 -0.0318,-0.0353 -0.0459,-0.0741 -0.0141,-0.0388 -0.0141,-0.0776 0,-0.0353 0.0141,-0.0776 0.0176,-0.0388 0.0459,-0.0741 0.0282,-0.0317 0.0635,-0.0564 0.0388,-0.0212 0.0847,-0.0212 0.0388,0 0.0705,0.0141 0.0317,0.0141 0.0564,0.0459 0.0423,0.0423 0.0917,0.0847 0.0494,0.0459 0.10583,0.0776 0.06,0.0353 0.12347,0.0565 0.067,0.0212 0.14111,0.0212 0.0706,0 0.13759,-0.0282 0.0705,-0.0282 0.12347,-0.0917 0.0564,-0.06 0.0882,-0.15522 0.0353,-0.0952 0.0353,-0.23284 z m -0.44097,-0.0106 q 0.0882,0 0.16581,-0.0353 0.0776,-0.0353 0.13758,-0.0917 0.06,-0.0564 0.0917,-0.13053 0.0353,-0.0741 0.0353,-0.1517 v -0.30339 q 0,-0.0811 -0.0282,-0.1658 -0.0247,-0.0847 -0.0776,-0.1517 -0.0494,-0.0705 -0.12348,-0.11641 -0.0705,-0.0459 -0.16227,-0.0459 -0.13053,0 -0.21167,0.06 -0.0811,0.0564 -0.127,0.14464 -0.0459,0.0847 -0.06,0.1905 -0.0141,0.10583 -0.0141,0.20814 0,0.1023 0.0141,0.20814 0.0141,0.1023 0.0564,0.18697 0.0423,0.0847 0.11289,0.14111 0.0741,0.0529 0.1905,0.0529 z m 1.94028,0.43744 q -0.127,0 -0.24342,-0.0459 -0.11289,-0.0459 -0.20108,-0.14464 -0.0847,-0.1023 -0.13758,-0.26105 -0.0529,-0.16228 -0.0529,-0.39512 0,-0.23989 0.0494,-0.45155 0.0529,-0.2152 0.15522,-0.37042 0.10231,-0.15875 0.254,-0.25047 0.1517,-0.0917 0.35278,-0.0917 0.16933,0 0.26811,0.0811 0.0776,0.067 0.13053,0.1658 0.004,-0.0318 0.007,-0.06 0.0176,-0.0988 0.0741,-0.14111 0.0564,-0.0459 0.15169,-0.0459 0.0988,0 0.13759,0.0459 0.0388,0.0459 0.0247,0.14111 -0.0317,0.20108 -0.0494,0.39511 -0.0176,0.19403 -0.0141,0.39511 0.004,0.19756 0.0282,0.40922 0.0247,0.20814 0.0776,0.44098 0.0212,0.0953 -0.0106,0.14111 -0.0318,0.0423 -0.13053,0.0423 -0.0988,0 -0.16228,-0.0459 -0.0635,-0.0459 -0.0847,-0.13758 -0.0282,-0.12348 -0.0494,-0.23989 -0.0176,0.0459 -0.0388,0.0882 -0.0811,0.15522 -0.21519,0.24695 -0.13053,0.0882 -0.32103,0.0882 z m 0.067,-0.38453 q 0.0917,0 0.17286,-0.0494 0.0811,-0.0494 0.14111,-0.14111 0.0635,-0.0917 0.0988,-0.22225 0.0388,-0.13405 0.0388,-0.30339 0,-0.0952 -0.007,-0.18697 -0.007,-0.0952 -0.0353,-0.16933 -0.0282,-0.0741 -0.0847,-0.11995 -0.0529,-0.0494 -0.14816,-0.0494 -0.10231,0 -0.1905,0.0635 -0.0847,0.06 -0.14817,0.16934 -0.0635,0.10583 -0.0988,0.25047 -0.0318,0.14464 -0.0318,0.31044 0,0.20462 0.0706,0.32809 0.0705,0.11994 0.22225,0.11994 z m 2.99156,-0.0353 q 0.0917,0 0.13758,0.0494 0.0494,0.0494 0.0494,0.14112 0,0.0917 -0.0494,0.14463 -0.0494,0.0494 -0.13758,0.0494 h -1.31234 q -0.0917,0 -0.14111,-0.0494 -0.0459,-0.0529 -0.0459,-0.14463 0,-0.0917 0.0459,-0.14112 0.0494,-0.0494 0.14111,-0.0494 h 0.47978 v -0.93487 q 0,-0.0811 -0.0423,-0.12347 -0.0388,-0.0423 -0.11995,-0.0423 h -0.23989 q -0.0952,0 -0.14463,-0.0494 -0.0494,-0.0494 -0.0494,-0.14111 0,-0.0917 0.0494,-0.14111 0.0494,-0.0529 0.14463,-0.0529 h 0.4692 q 0.17286,0 0.25753,0.0847 0.0847,0.0847 0.0847,0.25752 v 1.14301 z m -0.64911,-1.81681 q -0.127,0 -0.20462,-0.0635 -0.0741,-0.067 -0.0741,-0.17992 0,-0.11642 0.0741,-0.18344 0.0776,-0.067 0.20462,-0.067 0.127,0 0.20108,0.067 0.0776,0.067 0.0776,0.18344 0,0.11289 -0.0776,0.17992 -0.0741,0.0635 -0.20108,0.0635 z"
       id="text25"
       style="font-weight:600;font-size:3.52778px;font-family:'Maple Mono NF';-inkscape-font-specification:'Maple Mono NF Semi-Bold';fill:#f2e9e4;stroke-width:0.264583;stroke-linecap:round;stroke-linejoin:round;paint-order:stroke markers fill"
       aria-label="gai" />
  </g>
</svg>
